<svg width="714" height="448" viewBox="0 0 714 448" fill="none" xmlns="http://www.w3.org/2000/svg">
<path fill-rule="evenodd" clip-rule="evenodd" d="M571.204 1.57001L569 3.11301V40.934C569 81.709 568.981 81.566 574.195 80.827L576.5 80.5L577.247 57.5C577.657 44.85 577.882 27.354 577.747 18.621C577.518 3.87701 577.354 2.64401 575.454 1.38401C573.709 0.227006 573.082 0.254011 571.204 1.57001ZM572.345 3.543C572.019 4.392 571.538 4.872 571.276 4.61C571.014 4.348 571.096 3.653 571.459 3.067C572.445 1.471 573.021 1.781 572.345 3.543ZM575.807 4.526C575.499 4.834 574.94 4.279 574.564 3.293C574.022 1.868 574.136 1.75301 575.124 2.73301C575.808 3.41201 576.115 4.219 575.807 4.526ZM508.2 31.2C507.54 31.86 507 32.98 507 33.688C507 35.263 530.77 81.948 532.556 83.88C534.115 85.567 538.529 84.669 539.364 82.495C539.935 81.007 517.275 35.307 514.202 31.75C512.446 29.718 509.914 29.486 508.2 31.2ZM632.233 31.25C631.676 31.938 625.762 43.426 619.091 56.78C608.842 77.297 607.13 81.375 608.048 83.09C608.785 84.467 609.935 85.02 611.625 84.81C613.79 84.541 615.815 81.19 627.085 59.234C637.935 38.096 639.88 33.644 638.991 31.984C637.801 29.759 633.792 29.324 632.233 31.25ZM637.683 34.188C637.364 34.985 637.127 34.748 637.079 33.583C637.036 32.529 637.272 31.939 637.604 32.271C637.936 32.603 637.972 33.466 637.683 34.188ZM686.5 63.205C685.4 63.835 681.35 66.841 677.5 69.885C673.65 72.929 662.85 81.469 653.5 88.863C644.15 96.256 635.985 102.933 635.356 103.699C633.684 105.736 634.882 108.932 637.571 109.607C639.487 110.088 644.504 106.59 665.702 89.992C679.891 78.882 691.907 68.938 692.404 67.894C693.056 66.524 692.805 65.442 691.499 63.998C689.417 61.699 689.195 61.663 686.5 63.205ZM452.993 65.013C451.197 68.37 449.031 66.392 486.807 95.892C501.703 107.524 505.549 110.079 507.447 109.603C510.378 108.867 511.438 106.263 509.775 103.885C507.248 100.274 458.51 63.038 456.285 63.019C455.067 63.009 453.586 63.906 452.993 65.013ZM457.729 64.604C457.397 64.936 456.534 64.972 455.813 64.683C455.015 64.364 455.252 64.127 456.417 64.079C457.471 64.036 458.061 64.272 457.729 64.604ZM676 73.378C676 73.585 675.212 74.373 674.25 75.128C672.664 76.371 672.629 76.336 673.872 74.75C675.179 73.084 676 72.555 676 73.378ZM672 76.345C672 76.535 670.987 77.547 669.75 78.595L667.5 80.5L669.405 78.25C671.195 76.136 672 75.545 672 76.345ZM674 81.378C674 81.585 673.212 82.373 672.25 83.128C670.664 84.371 670.629 84.336 671.872 82.75C673.179 81.084 674 80.555 674 81.378ZM477.128 85.75C478.371 87.336 478.336 87.371 476.75 86.128C475.788 85.373 475 84.585 475 84.378C475 83.555 475.821 84.084 477.128 85.75ZM660 92.378C660 92.585 659.212 93.373 658.25 94.128C656.664 95.371 656.629 95.336 657.872 93.75C659.179 92.084 660 91.555 660 92.378ZM564.667 111.667C564.3 112.033 564 123.283 564 136.667V161H542.622C517.887 161 518.8 160.642 518.348 170.526C517.902 180.26 517.239 180 542.571 180H564V211.358V242.716L555.741 238.428C533.341 226.8 504.71 225.129 471.5 233.514C456.206 237.375 454 238.763 454 244.523C454 247.688 453.711 247.936 447.046 250.482C443.221 251.944 438.946 254.041 437.546 255.142L435 257.145V283.472V309.799L439.5 310.157L444 310.514V286.379V262.243L446.75 261.188C448.263 260.609 450.505 259.851 451.733 259.505L453.966 258.876L454.233 284.583L454.5 310.29L458.336 310.395C460.446 310.453 462.577 310.012 463.072 309.415C463.566 308.818 464.09 294.222 464.236 276.978L464.5 245.627L471.5 243.826C487.401 239.735 496.513 238.754 513.841 239.266C535.028 239.893 544.152 242.472 559.088 252.056L564 255.208V328.604C564 368.972 563.76 402 563.467 402C563.173 402 560.811 400.931 558.217 399.624C551.137 396.058 538.842 391.847 537.269 392.45C536.327 392.812 535.983 394.278 536.192 397.033L536.5 401.085L544.852 404.446C555.091 408.567 562.921 413.836 566.516 419.023C571.144 425.701 574.502 425.306 580.168 417.415C582.75 413.82 585.181 412.005 591.478 408.971C605.17 402.373 615.532 399.838 631.176 399.256C651.221 398.512 664.608 400.885 681.249 408.132C693.112 413.299 692 420.972 692 333.965C692 285.687 692.349 259 692.98 259C693.519 259 695.771 259.725 697.986 260.611L702.012 262.222L701.756 340.361L701.5 418.5L649 418.776C590.491 419.084 590.919 419.038 578.906 426.35L573.5 429.641L563.5 424.59C554.145 419.865 552.936 419.515 544.75 419.17L536 418.801V423.333C536 428.612 536.87 429.148 544.976 428.861C549.543 428.699 551.526 429.349 560.159 433.837C566.079 436.915 571.382 439 573.294 439C575.127 439 580.543 436.966 585.942 434.25L595.385 429.5L650.671 429L705.957 428.5L708.728 425.728L711.5 422.955L711.767 341.053L712.034 259.151L709.767 256.615C708.52 255.22 704.125 252.764 700 251.157C692.603 248.277 692.496 248.183 692.176 244.368C691.998 242.241 691.179 239.755 690.357 238.845C688.344 236.616 668.96 231.357 656 229.523C631.075 225.995 610.125 228.979 589.75 238.959L582 242.755V211.377V180H602.878C626.754 180 626.066 180.246 626.796 171.451C627.123 167.499 626.798 165.341 625.6 163.512L623.954 161H602.977H582V136.607C582 115.286 581.801 112.138 580.418 111.607C578.276 110.785 565.5 110.833 564.667 111.667ZM433.519 121.979C429.842 126.043 432.499 127.466 461.929 137.196C491.078 146.833 492.5 147.032 492.5 141.464C492.5 138.663 492.334 138.591 464.529 129.323C449.145 124.195 436.277 120 435.934 120C435.591 120 434.504 120.891 433.519 121.979ZM682.398 128.322C668.042 132.825 655.555 137.125 654.648 137.877C652.408 139.737 652.573 142.701 654.989 143.994C656.581 144.846 662.408 143.368 684.216 136.578C709.312 128.765 714 126.767 714 123.88C714 122.681 710.955 119.994 709.679 120.067C709.03 120.104 696.754 123.818 682.398 128.322ZM711.124 126.267C710.136 127.247 710.022 127.132 710.564 125.707C710.94 124.721 711.499 124.166 711.807 124.474C712.115 124.781 711.808 125.588 711.124 126.267ZM656.5 142C656.84 142.55 656.641 143 656.059 143C655.477 143 655 142.55 655 142C655 141.45 655.198 141 655.441 141C655.684 141 656.16 141.45 656.5 142ZM26.045 169.027C15.205 171.31 6.90599 177.656 2.60599 186.949C0.619985 191.242 0.480985 193.431 0.161985 225.5C-0.216015 263.45 0.407981 270.098 5.02998 277.386C11.362 287.371 21.221 291.462 37.38 290.808C48.672 290.351 54.035 288.542 60.233 283.1C66.355 277.725 68.323 272.267 68.82 259.284L69.252 248H59.27H49.289L48.72 255.513C48.021 264.763 45.658 269.903 41 272.305C33.342 276.253 24.194 272.148 21.932 263.749C21.288 261.357 21.011 247.914 21.198 228.201C21.467 199.927 21.694 196.144 23.299 193.206C26.034 188.196 30.535 185.805 36.297 186.302C44.854 187.039 48.341 192.623 49.224 207L49.5 211.5H59H68.5L68.817 205C69.172 197.74 67.588 188.082 65.293 183.513C62.644 178.239 56.832 173.081 51.138 170.95C44.867 168.604 32.541 167.659 26.045 169.027ZM201 169.302C189.237 171.987 182.004 177.443 177.606 186.949C175.58 191.327 175.5 192.964 175.5 230C175.5 267.036 175.58 268.673 177.606 273.051C180.684 279.704 185.381 284.549 191.818 287.71C197.154 290.33 198.292 290.5 210.5 290.495C221.651 290.491 224.158 290.187 228.122 288.358C235.048 285.163 240.353 279.815 243.593 272.762L246.47 266.5L246.829 234.773C247.232 199.183 246.565 192.317 241.916 184.176C235.041 172.14 217.116 165.623 201 169.302ZM370.369 169.493C363.126 171.068 359.312 172.909 354.449 177.179C350.836 180.352 346.847 187.17 345.617 192.279C345.248 193.808 344.905 210.72 344.854 229.863C344.743 271.516 345.013 273.143 353.414 281.544C360.082 288.212 368.052 291.006 380.355 290.988C394.188 290.968 402.195 287.993 408.89 280.387C415.715 272.634 416 270.609 416 229.856C416 196.645 415.858 193.695 414.02 188.788C410.068 178.232 402.504 172.061 390.364 169.489C382.103 167.739 378.429 167.739 370.369 169.493ZM94.518 171.25C94.287 171.938 93.913 191.4 93.687 214.5C93.405 243.312 92.9 257.694 92.076 260.303C90.418 265.562 86.165 270.014 81.986 270.869L78.5 271.582V280.541V289.5L82.79 289.809C90.227 290.346 97.652 287.49 102.942 282.06C112.13 272.627 113.796 263.784 114.81 219.085L115.5 188.67L127 188.585L138.5 188.5L139 238.5L139.5 288.5L148.409 288.791C153.309 288.951 157.702 288.698 158.173 288.227C159.43 286.97 159.852 172.252 158.605 171.005C157.017 169.417 95.053 169.654 94.518 171.25ZM262.504 171.134C262.216 171.885 262.098 198.6 262.24 230.5L262.5 288.5L283.896 288.77C307.953 289.074 314.89 288.018 321 283.12C328.254 277.305 330.88 271.257 331.708 258.46C332.683 243.408 328.374 232.776 319.831 229.147L315.766 227.421L319.972 224.638C326.598 220.252 329.45 213.073 329.363 201C329.254 185.876 325.393 178.297 315.278 173.348C309.579 170.559 309.38 170.538 286.283 170.154C267.281 169.839 262.931 170.018 262.504 171.134ZM658.2 174.2C656.633 175.767 656.662 179.501 658.25 180.692C659.39 181.547 667.415 182.951 699.735 187.952C710.239 189.578 711.068 189.582 712.485 188.017C714.325 185.983 714.436 183.585 712.75 182.27C711.815 181.54 663.076 172.981 659.95 172.997C659.648 172.999 658.86 173.54 658.2 174.2ZM460.711 178.003C437.081 181.366 434.009 182.038 432.691 184.128C430.837 187.067 432.593 189 437.117 189C443.724 189 486.358 182.871 487.801 181.714C488.516 181.141 488.966 179.508 488.801 178.086C488.537 175.817 488.009 175.481 484.5 175.343C482.3 175.257 471.595 176.454 460.711 178.003ZM711.512 186.757C709.799 188.326 709.737 188.33 710.891 186.794C711.596 185.855 711.842 184.505 711.439 183.794C710.849 182.752 710.97 182.745 712.06 183.757C713.191 184.807 713.101 185.301 711.512 186.757ZM218.102 188.27C224.838 192.77 224.997 193.729 224.997 230C224.997 258.967 224.807 262.873 223.248 265.929C220.535 271.25 216.747 273.5 210.5 273.5C204.303 273.5 200.77 271.401 197.821 265.968C196.067 262.737 195.957 260.214 196.219 229C196.482 197.656 196.626 195.314 198.457 192.609C202.961 185.957 211.738 184.018 218.102 188.27ZM388.102 188.27C394.839 192.77 394.997 193.728 394.998 230.016C395 259.754 394.842 262.826 393.149 265.983C390.249 271.39 386.699 273.5 380.5 273.5C374.253 273.5 370.465 271.25 367.752 265.929C366.192 262.871 366.003 258.951 366.002 229.7C366 194.62 366.083 193.968 371.155 189.377C374.145 186.67 375.561 186.176 380.602 186.079C383.305 186.027 385.863 186.774 388.102 188.27ZM304.211 191.215C307.757 193.544 309.372 198.962 308.707 206.299C307.763 216.707 303.525 219.84 290.25 219.944L283 220V204.667C283 196.233 283.186 189.146 283.414 188.917C283.642 188.688 287.827 188.725 292.715 189C298.732 189.339 302.444 190.053 304.211 191.215ZM302.684 238.943C308.41 241.543 310.441 245.601 310.47 254.5C310.495 262.005 308.726 266.409 304.634 269.032C303.351 269.854 298.61 270.565 292.75 270.816L283 271.233V254.116V237L290.75 237.022C296.19 237.037 299.747 237.61 302.684 238.943ZM659.5 240.419C671.535 242.549 681.13 245.152 681.525 246.393C682.099 248.194 682.921 397.746 682.36 398.307C682.078 398.589 679.831 397.928 677.366 396.838C669.57 393.389 654.227 390.049 643.067 389.372C624.915 388.269 605.219 391.8 589.328 399.005C585.695 400.652 582.561 402 582.362 402C582.163 402 582 369.173 582 329.051V256.102L585.25 253.677C593.094 247.826 607.469 241.748 617.387 240.089C625.831 238.677 650.761 238.872 659.5 240.419ZM304.166 326.469C292.752 329.064 284.976 335.351 281.318 344.944C279.818 348.88 279.534 354.231 279.232 384.245C278.85 422.12 279.402 427.447 284.506 435.18C289.89 443.335 300.83 448 314.576 448C330.802 448 341.882 442.049 347.694 430.214L350.5 424.5V386.5C350.5 349.617 350.436 348.362 348.33 343.804C345.182 336.99 338.421 330.675 331.504 328.087C323.983 325.274 312.43 324.589 304.166 326.469ZM132.41 327.072C125.762 328.669 117.836 334.011 114.319 339.266C109.267 346.816 108.828 351.165 109.181 390.239C109.495 424.938 109.538 425.584 111.889 430.788C116.876 441.824 128.371 448 143.924 448C167.297 448 179.165 435.227 177.836 411.5L177.5 405.5H167.5H157.5L156.996 413.5C156.456 422.068 155.691 424.09 151.511 428C149.351 430.021 147.815 430.5 143.5 430.5C139.194 430.5 137.637 430.016 135.452 428C130.196 423.151 129.998 421.665 130.022 387.282C130.042 358.255 130.208 355.138 131.938 351.328C134.36 345.995 137.694 343.833 143.5 343.833C152.365 343.833 156.199 348.553 156.973 360.414L157.5 368.5L167.222 368.786C176.916 369.071 176.946 369.064 177.586 366.513C178.431 363.148 177.272 351.867 175.394 345.173C173.485 338.369 167.712 331.988 160.727 328.962C154.778 326.385 139.515 325.367 132.41 327.072ZM470.552 327.603C464.49 329.53 457.899 333.954 454.55 338.346C449.042 345.567 448.688 347.992 448.233 381.638C447.785 414.706 448.511 424.161 452.028 431.055C457.534 441.848 466.397 447.164 479.968 447.813C490.782 448.33 498.217 446.818 505.117 442.7C511.071 439.147 516.298 432.319 518.052 425.806C518.713 423.351 519.177 408.559 519.249 387.649C519.355 357.046 519.176 352.896 517.525 347.682C515.15 340.18 508.797 333.026 501.215 329.317C496.316 326.92 494.133 326.498 485.513 326.282C478.561 326.108 473.987 326.512 470.552 327.603ZM2.59198 329.621C1.65198 332.071 1.94299 443.3 2.89299 444.832C3.55299 445.896 8.43098 446.097 27.11 445.831C49.01 445.518 50.818 445.35 55.488 443.2C58.231 441.936 61.538 439.912 62.837 438.701C69.464 432.524 72.998 418.116 71.077 405.103C69.418 393.857 66.178 389.268 56.541 384.514C55.909 384.202 56.047 383.752 56.892 383.369C57.657 383.023 59.984 381.202 62.063 379.324C67.101 374.772 69 368.897 69 357.859C69 346.739 66.561 339.643 61.017 334.634C54.667 328.898 49.784 328 24.925 328C5.83099 328 3.13898 328.195 2.59198 329.621ZM199.648 329.475C199.331 330.302 199.05 348.791 199.024 370.561C198.977 409.429 198.521 416.159 195.539 421.925C193.57 425.731 191.478 427.238 187.198 427.93L183.5 428.528L183.206 436.359C182.821 446.622 183.486 447.431 191.684 446.665C201.916 445.71 209.218 440.624 213.967 431.144C218.328 422.438 219.109 415.444 219.706 379.75L220.27 346H231.126H241.981L242.241 395.75L242.5 445.5H252H261.5V387V328.5L230.862 328.236C204.353 328.007 200.147 328.174 199.648 329.475ZM365.593 329.619C364.679 332.001 366.002 444.354 366.955 445.333C367.401 445.791 378.056 446.01 390.633 445.819C411.944 445.496 413.848 445.316 418.618 443.17C428.968 438.514 433.959 430.126 434.761 416.046C435.636 400.664 431.436 389.734 423.555 386.884C419.351 385.364 419.157 384.705 422.467 383.197C429.286 380.09 433.674 368.148 432.708 355.333C431.73 342.383 426.074 333.668 416.264 329.998C411.512 328.22 408.467 328 388.569 328C368.888 328 366.14 328.194 365.593 329.619ZM320.282 344.371C325.178 346.457 327.868 350.032 328.988 355.939C330.303 362.872 330.302 411.137 328.986 418.073C326.237 432.57 309.246 435.484 302.23 422.662C300.726 419.912 300.457 415.69 300.171 390.289C299.804 357.643 300.436 351.823 304.79 347.783C310.216 342.747 314.339 341.839 320.282 344.371ZM490.016 344.854C491.932 345.874 494.505 348.461 495.734 350.604C497.918 354.415 497.967 355.21 497.982 387C497.995 415.986 497.808 419.871 496.248 422.929C491.151 432.925 477.075 433.535 471.534 424C469.6 420.673 469.5 418.87 469.5 387.5C469.5 349.708 469.656 348.864 477.334 345.064C482.483 342.515 485.525 342.465 490.016 344.854ZM403.965 346.306C409.313 348.148 412 352.956 412 360.68C412 373.627 408.376 377.277 395.385 377.412L386.914 377.5L386.929 361.75C386.938 353.087 386.957 345.775 386.972 345.5C387.028 344.501 400.592 345.144 403.965 346.306ZM43.08 347.706C49.031 351.222 50.938 362.366 46.985 370.53C44.422 375.825 42.134 376.816 31.848 377.089L23.5 377.311L23.225 361.656L22.949 346H31.57C37.901 346 40.959 346.453 43.08 347.706ZM43.395 396.842C48.922 400.007 50.5 403.335 50.5 411.823C50.5 424.738 46.537 427.983 30.75 427.994L23 428V411.667C23 402.683 23.216 395.117 23.48 394.854C24.65 393.683 40.675 395.283 43.395 396.842ZM406.435 395.536C408.255 396.4 410.665 398.838 411.939 401.105C413.882 404.561 414.154 406.27 413.846 413.057C413.51 420.444 413.268 421.194 410.226 424.238C407.043 427.422 406.727 427.508 396.983 427.844L387 428.187V411.094V394H395.099C400.311 394 404.352 394.548 406.435 395.536Z" fill="#F2C34E"/>
</svg>
